<svg xmlns="http://www.w3.org/2000/svg" width="117.692" height="22.218" viewBox="0 0 117.692 22.218"><defs><style>.a{fill:#00b1ac;}.b{fill:#323436;}</style></defs><g transform="translate(-1.9 -12)"><g transform="translate(1.9 12)"><path class="a" d="M7.484,12V23.676h3.79V15.79H27.86v9.232H1.9V28.8H27.86v.012h3.778V12Z" transform="translate(-1.9 -12)"/><rect class="a" width="3.778" height="4.073" transform="translate(5.584 18.145)"/></g><g transform="translate(38.497 17.215)"><path class="b" d="M503.568,68.271a5.986,5.986,0,1,1-.024-11.971,5.987,5.987,0,1,1,.024,11.971Zm3.164-5.962a3.407,3.407,0,0,0-2.314-3.317,3.207,3.207,0,0,0-3.955,3.447,3.326,3.326,0,0,0,2.633,3.2A3.2,3.2,0,0,0,506.732,62.309Z" transform="translate(-475.589 -56.285)"/><path class="b" d="M901.684,56.176a6,6,0,1,1-5.926,6.41A6.009,6.009,0,0,1,901.684,56.176Zm3.282,5.95a7.53,7.53,0,0,0-.165-.968,3.043,3.043,0,0,0-2.231-2.29,2.958,2.958,0,0,0-3.046.956,3.659,3.659,0,0,0,.272,4.946,2.978,2.978,0,0,0,3.884.165A3.578,3.578,0,0,0,904.966,62.126Z" transform="translate(-826.826 -56.173)"/><path class="b" d="M410.31,69.787h-2.9V65.23h-3.778v4.545H400.7V58.3h2.916v4.262h3.778V58.3h2.928C410.31,62.125,410.31,65.938,410.31,69.787Z" transform="translate(-390.217 -58.049)"/><path class="b" d="M311.9,58.3h.9c1.5.035,2.987,0,4.486.106,3.034.224,3.884,3.447,2.9,5.619a3.831,3.831,0,0,1-3.719,2.184c-.567.024-1.133,0-1.747,0V69.8h-2.81C311.9,65.974,311.9,62.16,311.9,58.3Zm2.833,5.312h1.145a5.067,5.067,0,0,0,.732-.035,1.248,1.248,0,0,0,1.133-1.3,1.182,1.182,0,0,0-1.1-1.31c-.614-.083-1.251-.083-1.912-.118Z" transform="translate(-311.9 -58.049)"/><path class="b" d="M623.526,58.312V60.85h-2.231v8.937h-2.928V60.862H616.1V58.3C618.579,58.312,621.023,58.312,623.526,58.312Z" transform="translate(-580.188 -58.049)"/><path class="b" d="M694.4,58.3h2.88V69.775H694.4Z" transform="translate(-649.244 -58.049)"/><path class="b" d="M738.432,67.189q1.257-3.152,2.515-6.292c.342-.862.685-1.735,1.039-2.6H734.3v2.6h3.565q-1.257,3.152-2.515,6.292c-.342.862-.685,1.735-1.039,2.6h7.06l.649-2.6Z" transform="translate(-684.434 -58.049)"/><path class="b" d="M819.044,67.189q1.257-3.152,2.515-6.292c.342-.862.685-1.735,1.039-2.6h-6.339l-1,2.6h3.2q-1.257,3.152-2.515,6.292c-.342.862-.685,1.735-1.039,2.6h7.709v-2.6Z" transform="translate(-755.519 -58.049)"/></g></g></svg>